<?xml version="1.0" encoding="utf-8"?>
<!-- Generator: Adobe Illustrator 27.8.1, SVG Export Plug-In . SVG Version: 6.00 Build 0)  -->
<svg version="1.1" id="Layer_1" xmlns="http://www.w3.org/2000/svg" xmlns:xlink="http://www.w3.org/1999/xlink" x="0px" y="0px"
	 viewBox="0 0 640 512" style="enable-background:new 0 0 640 512;" xml:space="preserve">
<style type="text/css">
	.st0{fill:#EEDE7D;}
</style>
<path class="st0" d="M416,208c-8.8,0-16,7.2-16,16s7.2,16,16,16s16-7.2,16-16S424.8,208,416,208z M624,320h-48V160
	C576,71.6,504.4,0,416,0H64C28.7,0,0,28.7,0,64v256c0,35.3,28.7,64,64,64h32c0,53,43,96,96,96s96-43,96-96h336c8.8,0,16-7.2,16-16
	v-32C640,327.2,632.8,320,624,320z M192,432c-26.5,0-48-21.5-48-48s21.5-48,48-48s48,21.5,48,48C240,410.5,218.5,432,192,432z
	 M256,192c0,17.7-14.3,32-32,32H96c-17.7,0-32-14.3-32-32v-64c0-17.7,14.3-32,32-32h128c17.7,0,32,14.3,32,32V192z M448,320H320V128
	c0-17.7,14.3-32,32-32h64c17.7,0,32,14.3,32,32V320z"/>
</svg>
